<svg
  width="64"
  height="64"
  viewBox="0 0 64 64"
  xmlns="http://www.w3.org/2000/svg"
>
  <!-- Background -->
  <rect width="64" height="64" rx="14" fill="#0F172A"/>

  <!-- GitHub Octocat (simplified mark) -->
  <path
    fill="#FFFFFF"
    d="M32 14
       C22.6 14 15 21.6 15 31
       c0 7.5 4.9 13.9 11.7 16.1
       .9.2 1.2-.4 1.2-.9
       v-3.2
       c-4.8 1-5.8-2.3-5.8-2.3
       -.8-2-2-2.5-2-2.5
       -1.6-1.1.1-1.1.1-1.1
       1.8.1 2.7 1.9 2.7 1.9
       1.6 2.7 4.2 1.9 5.2 1.4
       .2-1.2.6-1.9 1.1-2.4
       -3.8-.4-7.8-1.9-7.8-8.4
       0-1.9.7-3.5 1.9-4.7
       -.2-.5-.8-2.3.2-4.8
       0 0 1.6-.5 5.1 1.8
       1.5-.4 3.1-.6 4.7-.6
       1.6 0 3.2.2 4.7.6
       3.5-2.3 5.1-1.8 5.1-1.8
       1 2.5.4 4.3.2 4.8
       1.2 1.2 1.9 2.8 1.9 4.7
       0 6.5-4 8-7.8 8.4
       .6.5 1.2 1.5 1.2 3
       v4.4
       c0 .5.3 1.1 1.2.9
       C44.1 44.9 49 38.5 49 31
       49 21.6 41.4 14 32 14Z"
  />
</svg>
